<?xml version="1.0" standalone="no"?>
<!DOCTYPE svg PUBLIC "-//W3C//DTD SVG 20010904//EN"
 "http://www.w3.org/TR/2001/REC-SVG-20010904/DTD/svg10.dtd">
<svg version="1.0" xmlns="http://www.w3.org/2000/svg"
 width="81.000000pt" height="81.000000pt" viewBox="0 0 81.000000 81.000000"
 preserveAspectRatio="xMidYMid meet">

<g transform="translate(0.000000,81.000000) scale(0.100000,-0.100000)"
fill="#000000" stroke="none">
<path d="M344 800 c-264 -38 -415 -331 -295 -574 144 -292 569 -292 712 0 144
291 -95 619 -417 574z m124 -256 c12 -14 22 -32 22 -40 0 -9 11 -14 35 -14 45
0 55 -20 55 -114 0 -131 -18 -146 -175 -146 -157 0 -175 15 -175 146 0 93 10
114 53 114 26 0 35 6 47 33 28 61 93 71 138 21z"/>
<path d="M367 522 c-26 -28 -21 -32 38 -32 58 0 66 7 37 33 -24 22 -55 21 -75
-1z"/>
<path d="M270 371 c0 -72 3 -90 16 -95 30 -11 229 -7 242 6 7 7 12 44 12 95 0
82 0 83 -25 83 -18 0 -25 -5 -25 -20 0 -11 -7 -20 -15 -20 -8 0 -15 9 -15 20
0 18 -7 20 -55 20 -48 0 -55 -2 -55 -20 0 -11 -7 -20 -15 -20 -8 0 -15 9 -15
20 0 15 -7 20 -25 20 -25 0 -25 -1 -25 -89z"/>
</g>
</svg>
